<?xml version="1.0" standalone="no"?><!DOCTYPE svg PUBLIC "-//W3C//DTD SVG 1.1//EN" "http://www.w3.org/Graphics/SVG/1.1/DTD/svg11.dtd"><svg t="1729147110144" class="icon" viewBox="0 0 1024 1024" version="1.1" xmlns="http://www.w3.org/2000/svg" p-id="11937" xmlns:xlink="http://www.w3.org/1999/xlink" width="200" height="200"><path d="M512 126.28571416C299.85714248 126.28571416 126.28571416 299.85714248 126.28571416 512s173.57142832 385.71428584 385.71428584 385.71428584 385.71428584-173.57142832 385.71428584-385.71428584-173.57142832-385.71428584-385.71428584-385.71428584z m0 617.14285752c-25.71428584 0-45-19.28571416-45-45s19.28571416-45 45-45 45 19.28571416 45 45-19.28571416 45-45 45zM569.85714248 319.14285752l-12.85714248 237.85714248c0 25.71428584-19.28571416 45-45 45-25.71428584 0-45-19.28571416-45-45l-6.42857168-231.42857168c0-25.71428584 19.28571416-45 45-45h25.71428584c19.28571416 0 38.57142832 19.28571416 38.57142832 38.5714292z" fill="#d81e06" p-id="11938"></path></svg>