<?xml version="1.0" encoding="UTF-8"?>
<svg width="12px" height="12px" viewBox="0 0 12 12" version="1.1" xmlns="http://www.w3.org/2000/svg" xmlns:xlink="http://www.w3.org/1999/xlink">
    <title>形状结合备份 4</title>
    <g id="模板" stroke="none" stroke-width="1" fill="none" fill-rule="evenodd">
        <g id="删除提示" transform="translate(-672.000000, -339.000000)" fill="#575B65" fill-rule="nonzero">
            <g id="编组-3" transform="translate(260.000000, 277.000000)">
                <g id="编组-7备份" transform="translate(0.000000, 46.000000)">
                    <path d="M413.612899,16.2097046 L413.707107,16.2928932 L418,20.585 L422.292893,16.2928932 C422.683418,15.9023689 423.316582,15.9023689 423.707107,16.2928932 C424.067591,16.6533772 424.09532,17.2206082 423.790295,17.6128994 L423.707107,17.7071068 L419.415,22 L423.707107,26.2928932 C424.097631,26.6834175 424.097631,27.3165825 423.707107,27.7071068 C423.346623,28.0675907 422.779392,28.0953203 422.387101,27.7902954 L422.292893,27.7071068 L418,23.415 L413.707107,27.7071068 C413.316582,28.0976311 412.683418,28.0976311 412.292893,27.7071068 C411.932409,27.3466228 411.90468,26.7793918 412.209705,26.3871006 L412.292893,26.2928932 L416.585,22 L412.292893,17.7071068 C411.902369,17.3165825 411.902369,16.6834175 412.292893,16.2928932 C412.623337,15.9624496 413.127505,15.9116121 413.511403,16.1403808 L413.612899,16.2097046 Z" id="形状结合备份-4"></path>
                </g>
            </g>
        </g>
    </g>
</svg>