<?xml version="1.0" encoding="UTF-8"?>
<svg width="48px" height="48px" viewBox="0 0 48 48" version="1.1"
     xmlns="http://www.w3.org/2000/svg">
  <title>编组 19</title>
  <g id="定向包" stroke="none" stroke-width="1" fill="none" fill-rule="evenodd">
    <g id="编组-19" fill-rule="nonzero">
      <circle id="椭圆_5" fill="#151515" opacity="0.6" cx="24.3" cy="24.3" r="22.8"></circle>
      <path
        d="M32.88,25.296 L20.64,33.3504 C20.297556,33.5757398 19.8796193,33.6558091 19.4781379,33.5729923 C19.0766565,33.4901755 18.72452,33.2512571 18.4992,32.9088 C18.3279377,32.656979 18.2375183,32.3589298 18.2399503,32.0544 L18.2399503,15.9456 C18.2399503,15.0919887 18.9319887,14.3999997 19.7856,14.3999997 C20.0884029,14.3999997 20.3849115,14.4864452 20.64,14.6496 L32.88,22.704 C33.5919773,23.1784275 33.7889875,24.1377815 33.3216,24.8544 C33.201955,25.0267924 33.0523924,25.176355 32.88,25.296 Z M24,48 C10.745166,48 0,37.254834 0,24 C0,10.745166 10.745166,0 24,0 C37.254834,0 48,10.745166 48,24 C48,37.254834 37.254834,48 24,48 Z M24,45.2832 C35.7543868,45.2832 45.2832,35.7543868 45.2832,24 C45.2832,12.2456132 35.7543868,2.7168 24,2.7168 C12.2456132,2.7168 2.7168,12.2456132 2.7168,24 C2.7168,35.7543868 12.2456132,45.2832 24,45.2832 Z"
        id="路径_1578" fill="#FFFFFF"></path>
    </g>
  </g>
</svg>
