<?xml version="1.0" encoding="UTF-8"?>
<svg width="48px" height="48px" viewBox="0 0 48 48" version="1.1"
     xmlns="http://www.w3.org/2000/svg">
  <title>编组 19备份</title>
  <g id="定向包" stroke="none" stroke-width="1" fill="none" fill-rule="evenodd">
    <g id="编组-19备份">
      <circle id="椭圆_5" fill="#151515" fill-rule="nonzero" opacity="0.6" cx="24" cy="24" r="22.8"></circle>
      <rect id="矩形" fill="#FFFFFF" x="15.6" y="14.4" width="6" height="19.2"></rect>
      <rect id="矩形备份-5" fill="#FFFFFF" x="26.4" y="14.4" width="6" height="19.2"></rect>
      <path
        d="M24,48 C10.745166,48 0,37.254834 0,24 C0,10.745166 10.745166,0 24,0 C37.254834,0 48,10.745166 48,24 C48,37.254834 37.254834,48 24,48 Z M24,45.2832 C35.7543868,45.2832 45.2832,35.7543868 45.2832,24 C45.2832,12.2456132 35.7543868,2.7168 24,2.7168 C12.2456132,2.7168 2.7168,12.2456132 2.7168,24 C2.7168,35.7543868 12.2456132,45.2832 24,45.2832 Z"
        id="路径_1578" fill="#FFFFFF" fill-rule="nonzero"></path>
    </g>
  </g>
</svg>
