<?xml version="1.0" encoding="UTF-8"?>
<svg width="30px" height="16px" viewBox="0 0 30 16" version="1.1" xmlns="http://www.w3.org/2000/svg"
>
  <title>编组 2</title>
  <g id="按钮" stroke="none" stroke-width="1" fill="none" fill-rule="evenodd">
    <g id="画板备份-2" transform="translate(-113.000000, -20.000000)">
      <g id="编组-2" transform="translate(113.000000, 20.000000)">
        <path
          d="M5,0 L25,0 C27.7614237,-5.07265313e-16 30,2.23857625 30,5 L30,11 C30,13.7614237 27.7614237,16 25,16 L0,16 L0,16 L0,5 C-3.38176876e-16,2.23857625 2.23857625,5.07265313e-16 5,0 Z"
          id="矩形" fill="#FE7858"></path>
        <path
          d="M9.79010823,12.982771 L9.79010823,12.2658364 L14.4936336,12.2658364 L14.4936336,11.3425115 L12.3536925,11.3425115 L12.3536925,10.0607194 L14.113441,10.0607194 L14.113441,9.16998249 L12.3536925,9.16998249 L12.3536925,7.93164094 L14.1243037,7.93164094 L14.1243037,7.04090403 L12.3536925,7.04090403 L12.3536925,5.82428776 L14.2763807,5.82428776 L14.2763807,4.90096292 L12.092989,4.90096292 L12.7230224,4.62939678 C12.5926707,4.20575362 12.2667913,3.56485755 11.9517746,3.08690116 L11.082763,3.43450581 C11.3543291,3.89073691 11.6367579,4.47731975 11.7671097,4.90096292 L9.92045997,4.90096292 C10.1594382,4.37955594 10.3549658,3.84728633 10.5396307,3.31501671 L9.57285532,3.06517587 C9.08403629,4.65112208 8.25847525,6.21534299 7.29169982,7.21470635 C7.43291421,7.31247016 7.61757918,7.50799777 7.78051886,7.6818001 L6.86805666,7.95336623 L6.86805666,6.01981537 L8.0303597,6.01981537 L8.0303597,5.08562788 L6.86805666,5.08562788 L6.86805666,3.02172529 L5.90128124,3.02172529 L5.90128124,5.08562788 L4.59776381,5.08562788 L4.59776381,6.01981537 L5.90128124,6.01981537 L5.90128124,8.235795 C5.36901162,8.37700939 4.89105523,8.51822378 4.5,8.61598759 L4.72811555,9.59362566 C5.09744549,9.4849992 5.48850072,9.36551011 5.90128124,9.23515836 L5.90128124,11.7770173 C5.90128124,11.9290944 5.84696801,11.972545 5.70575362,11.972545 C5.58626452,11.9834076 5.173484,11.9834076 4.74984084,11.9616823 C4.89105523,12.2441111 5.01054433,12.6894795 5.04313226,12.950183 C5.72747891,12.950183 6.17284737,12.9175951 6.47700143,12.7437928 C6.77029285,12.5808531 6.86805666,12.2984243 6.86805666,11.78788 L6.86805666,8.9310043 L8.0303597,8.572537 L7.9108706,7.81215184 L8.0303597,7.94250358 C8.30192583,7.63834951 8.57349196,7.27988222 8.8233328,6.89968964 L8.8233328,12.982771 L9.79010823,12.982771 Z M11.419505,7.04090403 L9.79010823,7.04090403 L9.79010823,5.82428776 L11.419505,5.82428776 L11.419505,7.04090403 Z M11.419505,9.16998249 L9.79010823,9.16998249 L9.79010823,7.93164094 L11.419505,7.93164094 L11.419505,9.16998249 Z M11.419505,11.3425115 L9.79010823,11.3425115 L9.79010823,10.0607194 L11.419505,10.0607194 L11.419505,11.3425115 Z M18.3089289,12.9719083 L18.3089289,8.44218526 C18.7108467,7.95336623 19.0801767,7.43195926 19.406056,6.8671017 L25.3370603,6.8671017 L25.3370603,5.96550215 L19.8948751,5.96550215 C20.0035015,5.71566131 20.112128,5.47668311 20.2098918,5.21597963 L19.253979,4.96613879 L19.1562152,5.21597963 L19.1562152,4.64025943 L22.13258,4.64025943 L22.13258,5.45495782 L23.110218,5.45495782 L23.110218,4.64025943 L25.4348241,4.64025943 L25.4348241,3.74952252 L23.110218,3.74952252 L23.110218,3 L22.13258,3 L22.13258,3.74952252 L19.1562152,3.74952252 L19.1562152,3.01086265 L18.1677145,3.01086265 L18.1677145,3.74952252 L15.8213831,3.74952252 L15.8213831,4.64025943 L18.1677145,4.64025943 L18.1677145,5.46582047 L19.0475887,5.46582047 C18.9715502,5.63962279 18.8955117,5.80256247 18.8194732,5.96550215 L15.886559,5.96550215 L15.886559,6.8671017 L18.2872036,6.8671017 C17.5485437,7.97509152 16.6143562,8.89841636 15.517229,9.55017508 C15.7236193,9.74570269 16.0494986,10.1693459 16.1798504,10.3757361 C16.5817683,10.0933073 16.9836861,9.78915327 17.3530161,9.44154862 L17.3530161,12.9719083 L18.3089289,12.9719083 Z M22.3715582,12.8089686 C22.7300255,12.6677543 22.8169266,12.4287761 22.8169266,11.9616823 L22.8169266,10.6364396 L25.5,10.6364396 L25.5,9.77829063 L22.8169266,9.77829063 L22.8169266,9.44154862 C23.5229986,9.06135604 24.2290705,8.56167436 24.7613401,8.07285532 L24.1638946,7.58403629 L23.9792297,7.63834951 L19.7862486,7.63834951 L19.7862486,8.43132262 L23.0124542,8.43132262 C22.6431243,8.70288875 22.2303438,8.94186694 21.8501512,9.12653191 L21.8501512,9.77829063 L18.9715502,9.77829063 L18.9715502,10.6364396 L21.8501512,10.6364396 L21.8501512,11.9290944 C21.8501512,12.0703088 21.8067006,12.0920341 21.6437609,12.1028967 C21.5025466,12.1137594 20.9485516,12.1137594 20.3945567,12.0920341 C20.5249085,12.3310123 20.6661229,12.6894795 20.7204361,12.950183 C21.4916839,12.950183 22.0130909,12.9393204 22.3715582,12.8089686 Z"
          id="推荐" fill="#FFFFFF" fill-rule="nonzero"></path>
      </g>
    </g>
  </g>
</svg>
