<?xml version="1.0" encoding="UTF-8"?><svg version="1.1" width="519px" height="426px" viewBox="0 0 519.0 426.0" xmlns="http://www.w3.org/2000/svg" xmlns:xlink="http://www.w3.org/1999/xlink"><defs><clipPath id="i0"><path d="M2000,0 L2000,2806 L0,2806 L0,0 L2000,0 Z"></path></clipPath><clipPath id="i1"><path d="M260.654803,3.21306006 C338.431218,18.4521065 338.431218,66.6433333 380.16497,120.020394 C421.898722,173.397454 518.389449,193.244087 518.389449,286.033616 C518.389449,378.823146 427.964506,407.97582 424.331701,409.386404 C302.753829,456.593974 240.56343,385.394682 185.055643,371.044971 C129.547856,356.69526 27.9960023,371.044971 3.64935294,286.033616 C-20.6972964,201.022262 83.9256129,177.716151 106.166747,102.803624 C128.407881,27.8910975 182.878388,-12.0259864 260.654803,3.21306006 Z"></path></clipPath><clipPath id="i2"><path d="M265,0 C411.355459,0 530,118.644541 530,265 C530,411.355459 411.355459,530 265,530 C118.644541,530 0,411.355459 0,265 C0,118.644541 118.644541,0 265,0 Z"></path></clipPath><radialGradient id="i3" cx="228.954374px" cy="49.532786px" r="530px" gradientTransform="translate(276.55481036434287 -179.42158818218203) rotate(90.0) scale(1.0 0.9609884692997744)" gradientUnits="userSpaceOnUse"><stop stop-color="#C0DAFF" offset="0%"></stop><stop stop-color="#83B6FF" offset="100%"></stop></radialGradient><clipPath id="i4"><path d="M30,0 C46.5685425,0 60,13.4314575 60,30 C60,46.5685425 46.5685425,60 30,60 C13.4314575,60 0,46.5685425 0,30 C0,13.4314575 13.4314575,0 30,0 Z"></path></clipPath><radialGradient id="i5" cx="31.8358422px" cy="16.2201193px" r="77.7303545px" gradientTransform="translate(48.05596144955 -15.615722888511067) rotate(90.0)" gradientUnits="userSpaceOnUse"><stop stop-color="rgba(57, 137, 250, 0.167204)" offset="0%"></stop><stop stop-color="#7DB0FF" offset="100%"></stop><stop stop-color="rgba(57, 137, 250, 0.282261)" offset="100%"></stop></radialGradient><clipPath id="i6"><path d="M38,0 C58.9868205,0 76,17.0131795 76,38 C76,58.9868205 58.9868205,76 38,76 C17.0131795,76 0,58.9868205 0,38 C0,17.0131795 17.0131795,0 38,0 Z"></path></clipPath><radialGradient id="i7" cx="42.6621094px" cy="38px" r="76px" gradientTransform="translate(80.66210939712435 -4.6621093971258345) rotate(90.0)" gradientUnits="userSpaceOnUse"><stop stop-color="#84B5FF" offset="0%"></stop><stop stop-color="#5EACFE" offset="100%"></stop></radialGradient><clipPath id="i8"><path d="M15.5,0 C24.0604136,0 31,6.93958638 31,15.5 C31,24.0604136 24.0604136,31 15.5,31 C6.93958638,31 0,24.0604136 0,15.5 C0,6.93958638 6.93958638,0 15.5,0 Z"></path></clipPath><linearGradient id="i9" x1="15.5px" y1="0px" x2="15.5px" y2="31px" gradientUnits="userSpaceOnUse"><stop stop-color="#8FCEFF" offset="0%"></stop><stop stop-color="#4CA7FC" offset="100%"></stop></linearGradient><clipPath id="i10"><path d="M8.5,0 C13.1944204,0 17,3.80557963 17,8.5 C17,13.1944204 13.1944204,17 8.5,17 C3.80557963,17 0,13.1944204 0,8.5 C0,3.80557963 3.80557963,0 8.5,0 Z"></path></clipPath><linearGradient id="i11" x1="8.5px" y1="0px" x2="8.5px" y2="17px" gradientUnits="userSpaceOnUse"><stop stop-color="#8FCEFF" offset="0%"></stop><stop stop-color="#4CA7FC" offset="100%"></stop></linearGradient><clipPath id="i12"><path d="M36.6027423,0 C56.8178787,0 73.2054847,16.3876059 73.2054847,36.6027423 C73.2054847,56.8178787 56.8178787,73.2054847 36.6027423,73.2054847 C16.3876059,73.2054847 0,56.8178787 0,36.6027423 C0,16.3876059 16.3876059,0 36.6027423,0 Z"></path></clipPath><linearGradient id="i13" x1="36.6027423px" y1="0px" x2="36.6027423px" y2="73.2054847px" gradientUnits="userSpaceOnUse"><stop stop-color="#8FCEFF" offset="0%"></stop><stop stop-color="#4CA7FC" offset="100%"></stop></linearGradient><clipPath id="i14"><path d="M6.33509002,0 C9.83386362,0 12.67018,2.83631641 12.67018,6.33509002 C12.67018,9.83386362 9.83386362,12.67018 6.33509002,12.67018 C2.83631641,12.67018 0,9.83386362 0,6.33509002 C0,2.83631641 2.83631641,0 6.33509002,0 Z"></path></clipPath><clipPath id="i15"><path d="M10.5584834,0 C16.3897727,0 21.1169667,4.72719402 21.1169667,10.5584834 C21.1169667,16.3897727 16.3897727,21.1169667 10.5584834,21.1169667 C4.72719402,21.1169667 0,16.3897727 0,10.5584834 C0,4.72719402 4.72719402,0 10.5584834,0 Z"></path></clipPath><clipPath id="i16"><path d="M7.7428878,0 C12.0191667,0 15.4857756,3.46660895 15.4857756,7.7428878 C15.4857756,12.0191667 12.0191667,15.4857756 7.7428878,15.4857756 C3.46660895,15.4857756 0,12.0191667 0,7.7428878 C0,3.46660895 3.46660895,0 7.7428878,0 Z"></path></clipPath><clipPath id="i17"><path d="M100.163,0 L100.451315,0.0305198276 L102.293125,0.239845885 C103.813272,0.418957891 105.296291,0.60967459 106.73926,0.811400708 L108.451409,1.05871847 C125.376915,3.5839794 136.366522,7.66030907 136.366522,12.2590767 C136.366522,16.8578443 125.376915,20.9341739 108.451409,23.4594349 L106.73926,23.7067526 C105.296291,23.9084787 103.813272,24.0991954 102.293125,24.2783074 L100.451315,24.4876335 L98.5749858,24.6855905 L96.6652609,24.8719498 C96.0232447,24.9321112 95.3758498,24.9903016 94.7232632,25.0464828 L92.7501156,25.208961 C92.0873329,25.2610859 91.4195457,25.3111635 90.7469412,25.3591558 L88.7148632,25.4968385 C88.3738372,25.5187303 88.0316538,25.5400912 87.6883362,25.5609165 L85.6150083,25.6794026 L83.5155842,25.7848053 L81.3911871,25.8768959 C80.6790174,25.9053487 79.9628726,25.9315447 79.24294,25.9554458 L77.071966,26.0202266 L74.879388,26.0710095 L72.6663291,26.107566 C72.2958416,26.1124605 71.9245476,26.1167528 71.5524703,26.1204379 L69.3107959,26.1352263 C68.9356795,26.1364642 68.5598267,26.1370855 68.183261,26.1370855 L67.0557261,26.1352263 L64.8140516,26.1204379 C64.4419744,26.1167528 64.0706803,26.1124605 63.7001928,26.107566 L61.4871339,26.0710095 L59.2945559,26.0202266 L57.1235819,25.9554458 C56.4036493,25.9315447 55.6875045,25.9053487 54.9753348,25.8768959 L52.8509377,25.7848053 L50.7515136,25.6794026 L48.6781857,25.5609165 C48.3348681,25.5400912 47.9926847,25.5187303 47.6516587,25.4968385 L45.6195807,25.3591558 C45.2832785,25.3351596 44.9481805,25.3106421 44.6143104,25.2856081 L42.626009,25.129243 C41.9682776,25.0750805 41.3156442,25.0188897 40.668296,24.9607089 L38.7422943,24.7802341 C38.423999,24.7491726 38.1070718,24.7176232 37.7915361,24.6855905 L35.9152071,24.4876335 L34.0733971,24.2783074 C32.5532502,24.0991954 31.0702304,23.9084787 29.6272623,23.7067526 L27.9151126,23.4594349 C10.9896069,20.9341739 -9.23705556e-13,16.8578443 -9.23705556e-13,12.2590767 C-9.23705556e-13,7.67476203 10.9206394,3.60960665 27.7557088,1.08257349 L27.756,2.319 L27.5123105,2.35568424 L27.1046481,2.41765493 L25.4988481,2.6710742 C25.2345678,2.71403926 24.9719799,2.75736471 24.7111082,2.80104472 L23.1666631,3.06733319 L21.6645512,3.34185242 C21.1710299,3.43469963 20.6847547,3.52887214 20.2059163,3.62432346 L18.7919023,3.91446735 C7.89321113,6.21658476 1.20678338,9.19924818 1.20678338,12.2590767 C1.20678338,15.3189052 7.89321113,18.3015686 18.7919023,20.603686 L20.2059163,20.8938299 C20.6847547,20.9892812 21.1710299,21.0834537 21.6645512,21.1763009 L23.1666631,21.4508201 L24.7111082,21.7171086 C24.9719799,21.7607886 25.2345678,21.8041141 25.4988481,21.8470791 L27.1046481,22.1004984 C27.3756027,22.1419987 27.648202,22.183127 27.9224222,22.2238774 L29.5870034,22.4637998 L31.2893423,22.6943757 L33.028295,22.9153259 L34.8027176,23.1263717 L36.6114663,23.327234 L38.4533972,23.5176338 L40.3273664,23.6972923 L42.23223,23.8659304 L44.1668442,24.0232692 L46.1300652,24.1690297 L48.120749,24.302933 L50.1377517,24.4247001 L52.1799296,24.5340521 C52.522327,24.5512274 52.8657256,24.5678737 53.2101018,24.5839853 L55.2878975,24.6741915 C55.6360882,24.6881409 55.9852087,24.701544 56.3352352,24.7143949 L58.4460752,24.7848277 C59.1531853,24.8060656 59.8637288,24.8250484 60.5775148,24.8417295 L62.7284102,24.8848215 L64.8976175,24.9138245 L67.0839928,24.9284597 L68.183261,24.9303022 L69.2825292,24.9284597 L71.4689045,24.9138245 L73.6381117,24.8848215 L75.7890071,24.8417295 C76.5027932,24.8250484 77.2133366,24.8060656 77.9204467,24.7848277 L80.0312867,24.7143949 L82.1203832,24.63071 C82.4666904,24.6156737 82.812044,24.6000969 83.1564202,24.5839853 L85.2107566,24.4809455 C85.5511276,24.4627182 85.8904734,24.4439678 86.2287702,24.4247001 L88.2457729,24.302933 L90.2364567,24.1690297 L92.1996777,24.0232692 L94.1342919,23.8659304 L96.0391555,23.6972923 L97.9131247,23.5176338 L99.7550556,23.327234 L101.563804,23.1263717 L103.338227,22.9153259 L105.07718,22.6943757 L106.779519,22.4637998 L108.4441,22.2238774 C108.71832,22.183127 108.990919,22.1419987 109.261874,22.1004984 L110.867674,21.8470791 C111.131954,21.8041141 111.394542,21.7607886 111.655414,21.7171086 L113.199859,21.4508201 L114.701971,21.1763009 C115.195492,21.0834537 115.681767,20.9892812 116.160606,20.8938299 L117.57462,20.603686 C128.473311,18.3015686 135.159739,15.3189052 135.159739,12.2590767 C135.159739,9.19924818 128.473311,6.21658476 117.57462,3.91446735 L116.160606,3.62432346 C115.681767,3.52887214 115.195492,3.43469963 114.701971,3.34185242 L113.199859,3.06733319 L111.655414,2.80104472 C111.394542,2.75736471 111.131954,2.71403926 110.867674,2.6710742 L109.261874,2.41765493 C108.990919,2.37615465 108.71832,2.33502637 108.4441,2.29427592 L106.779519,2.05435349 L105.07718,1.82377767 L103.338227,1.6028274 L101.563804,1.39178165 L100.163,1.235 L100.163,0 Z"></path></clipPath><clipPath id="i18"><path d="M12,0 C18.627417,0 24,5.372583 24,12 C24,18.627417 18.627417,24 12,24 C5.372583,24 0,18.627417 0,12 C0,5.372583 5.372583,0 12,0 Z"></path></clipPath><linearGradient id="i19" x1="12px" y1="0px" x2="12px" y2="24px" gradientUnits="userSpaceOnUse"><stop stop-color="#8FCEFF" offset="0%"></stop><stop stop-color="#4CA7FC" offset="100%"></stop></linearGradient><clipPath id="i20"><path d="M110.32879,0 L114.275751,5.3023894 L114.296991,5.32931687 C114.397285,5.45470547 114.839949,5.99271577 115.661192,6.82405773 L115.96682,7.12945816 C120.199461,11.3058169 132.699569,21.5136497 157.100855,25.7817306 L173.550355,9.89212959 L192.980507,27.3792662 L175.960295,128.078045 C171.504206,154.442157 156.202218,192.896883 75.1153887,222.317179 L72.5909644,223.234607 L70.3754231,222.317179 C49.1609301,213.543961 34.0678636,203.967415 23.4500285,194.147694 L23.4412342,194.158744 L2.55208738,175.06042 L6.23382631,171.501174 C-1.31943188,155.809488 -0.726395567,140.583608 1.38730752,128.078045 L18.4075189,27.3792662 L25.1630384,27.6111164 C77.7661484,29.4133155 104.33203,5.53448891 104.582709,5.3021401 L110.32879,0 Z"></path></clipPath><linearGradient id="i21" x1="85.2276189px" y1="241.660048px" x2="192.980507px" y2="48.4412281px" gradientUnits="userSpaceOnUse"><stop stop-color="#00A3F2" offset="0%"></stop><stop stop-color="#1F9BFF" offset="100%"></stop></linearGradient><clipPath id="i22"><path d="M110.32879,0 L114.275751,5.3023894 C114.421141,5.4938528 132.018046,27.7070974 180.493437,27.7070974 C182.335774,27.7070974 184.223505,27.6804222 186.146861,27.6111164 L192.980507,27.3792662 L175.960295,128.078045 C171.504206,154.442157 156.202218,192.896883 75.1153887,222.317179 L72.5909644,223.234607 L70.3754231,222.317179 C-0.766315919,192.896633 -3.06878174,154.442157 1.38730752,128.078045 L18.4075189,27.3792662 L25.1630384,27.6111164 C77.7661484,29.4133155 104.33203,5.53448891 104.582709,5.3021401 L110.32879,0 Z"></path></clipPath><linearGradient id="i23" x1="66.6727245px" y1="63.6461796px" x2="109.567375px" y2="197.584211px" gradientUnits="userSpaceOnUse"><stop stop-color="#AEDBFF" offset="0%"></stop><stop stop-color="#54B4FF" offset="100%"></stop></linearGradient><clipPath id="i24"><path d="M29.6376618,0 C43.3352864,0 52.4525613,11.1041188 50.0016651,24.8017434 C48.0694771,35.6003999 39.5243691,44.7871636 29.2824525,48.1920519 L23.852066,78.5388542 C23.0351006,83.1047291 18.6714464,86.806102 14.1055715,86.806102 C9.5396966,86.806102 6.50060498,83.1047291 7.31757037,78.5388542 L12.7483005,48.1925415 C3.72405372,44.7880444 -1.53410236,35.6009176 0.398178249,24.8017434 C2.84907442,11.1041188 15.9400371,0 29.6376618,0 Z"></path></clipPath><radialGradient id="i25" cx="25.1999217px" cy="26.247595px" r="53.1446435px" gradientTransform="translate(57.11010553005889 8.762959926711757) rotate(105.11361592932633)" gradientUnits="userSpaceOnUse"><stop stop-color="#FFFFFF" offset="0%"></stop><stop stop-color="#D7EDFF" offset="100%"></stop></radialGradient><filter id="i26" x="-24.4648736%" y="-16.0310839%" filterUnits="userSpaceOnUse" width="130.581092%" height="120.038855%"><feGaussianBlur stdDeviation="1.5" in="SourceAlpha" result="i27"></feGaussianBlur><feOffset dx="4" dy="2" in="i27" result="i28"></feOffset><feColorMatrix values="0 0 0 0.002001668337420414 0 0 0 0 0.5599557192156974 0 0 0 0 0.9379245923913043 0 0 0 0 0.15 0" type="matrix" in="i28"></feColorMatrix></filter></defs><g transform="translate(-531.0 -1297.0)"><g clip-path="url(#i0)"><g transform="translate(531.0 1297.0)"><g transform=""><g clip-path="url(#i1)"><polygon points="0,1.42108547e-14 518.389449,1.42108547e-14 518.389449,425.340042 0,425.340042 0,1.42108547e-14" stroke="none" fill="#E9F2FF"></polygon></g><g clip-path="url(#i1)"><g transform="translate(21.49600227586859 249.90765386296516)"><g clip-path="url(#i2)"><polygon points="0,0 496.893447,0 496.893447,175.432388 0,175.432388 0,0" stroke="none" fill="url(#i3)"></polygon></g></g><g transform="translate(355.9960022758687 319.4076538629652)"><g clip-path="url(#i4)"><polygon points="0,0 60,0 60,60 0,60 0,0" stroke="none" fill="url(#i5)"></polygon><g transform="translate(2.0 4.0)"><path d="M58,-4 L58.0009882,19.2097477 C53.667828,7.97246594 42.7649486,0 30,0 C13.4314575,0 0,13.4314575 0,30 C0,41.1144572 6.0440917,50.8172411 15.0247708,56.0008475 L-2,56 L-2,-4 L58,-4 Z M58.0009882,40.7902523 L58,56 L44.9752292,56.0008475 C50.8825368,52.5911769 55.5192593,47.2261756 58.0009882,40.7902523 Z" stroke="none" fill="#62A6FF"></path></g></g></g><g transform="translate(157.9960022758687 319.4076538629652)"><g opacity="72.1121652%"><g clip-path="url(#i6)"><polygon points="0,0 76,0 76,76 0,76 0,0" stroke="none" fill="url(#i7)"></polygon><g transform="translate(2.0 4.0)"><path d="M74,-4 L74.001563,25.806856 C68.9210143,10.8009258 54.7218528,0 38,0 C17.0131795,0 0,17.0131795 0,38 C0,52.8810921 8.55385329,65.7643247 21.0129116,72.0010495 L-2,72 L-2,-4 L74,-4 Z M74.001563,50.193144 L74,72 L54.9870884,72.0010495 C63.8753415,67.5517896 70.7760988,59.7198887 74.001563,50.193144 Z" stroke="none" fill="rgba(57, 137, 250, 0.84304)"></path></g></g></g></g></g><g transform="translate(481.9960022758686 166.4076538629652)"><g clip-path="url(#i8)"><polygon points="0,0 31,0 31,31 0,31 0,0" stroke="none" fill="url(#i9)"></polygon></g></g><g transform="translate(177.9960022758687 99.40765386296516)"><g clip-path="url(#i10)"><polygon points="0,0 17,0 17,17 0,17 0,0" stroke="none" fill="url(#i11)" opacity="23.5677083%"></polygon></g></g><g transform="translate(360.9960022758687 183.4076538629652)"><g clip-path="url(#i8)"><polygon points="0,0 31,0 31,31 0,31 0,0" stroke="none" fill="url(#i9)" opacity="23.5677083%"></polygon></g></g><g transform="translate(60.34548872795671 166.24042684109884) rotate(9.0)"><g transform="translate(24.90620566890604 1.5489831639570184e-12)"><g clip-path="url(#i12)"><polygon points="4.54747351e-13,0 73.2054847,0 73.2054847,73.2054847 4.54747351e-13,73.2054847 4.54747351e-13,0" stroke="none" fill="url(#i13)"></polygon></g></g><g transform="translate(61.50894799884464 11.262382255361928)"><g clip-path="url(#i14)"><polygon points="4.54747351e-13,0 12.67018,0 12.67018,12.67018 4.54747351e-13,12.67018 4.54747351e-13,0" stroke="none" fill="#31A1FF"></polygon></g></g><g transform="translate(38.98418348811317 39.41833789377782)"><g clip-path="url(#i15)"><polygon points="0,0 21.1169667,0 21.1169667,21.1169667 0,21.1169667 0,0" stroke="none" fill="#1E98FD"></polygon></g></g><g transform="translate(74.17912803613133 39.41833789377774)"><g clip-path="url(#i16)"><polygon points="0,0 15.4857756,0 15.4857756,15.4857756 0,15.4857756 0,0" stroke="none" fill="#1E99FF"></polygon></g></g><g transform="translate(-1.4210854715202004e-13 55.064469431450206) rotate(-21.999999999999996)"><g clip-path="url(#i17)"><polygon points="-4.68958206e-13,0 136.366522,0 136.366522,26.1370855 -4.68958206e-13,26.1370855 -4.68958206e-13,0" stroke="none" fill="#6B97FF"></polygon></g></g></g><g transform="translate(424.46471740481127 224.45585937097704) rotate(-14.999999999999998)"><path d="M0,31.9261325 C11.2709365,34.6912892 20.0677348,34.6912892 26.3903948,31.9261325 C35.8743848,27.7783975 48.7818007,16.2061537 31.1704575,13.827486 C13.5591142,11.4488183 26.8831121,30.5813206 43.122936,23.913743 C53.9494852,19.4686913 61.5751732,11.4974436 66,0" stroke="#48A4FB" stroke-width="2" fill="none" stroke-linecap="round" stroke-miterlimit="10" opacity="59.9888393%"></path></g><g transform="translate(56.96039453532815 111.55595187797235) rotate(-180.0)"><g transform="translate(9.309415979683763 0.5726582956776838)"><g clip-path="url(#i18)"><polygon points="0,0 24,0 24,24 0,24 0,0" stroke="none" fill="url(#i19)" opacity="26.2555804%"></polygon></g></g><path d="M13.4072979,3.89564881 C5.51916791,0.302808538 1.06579237,-0.804854967 0.0471712244,0.572658296 C-0.74193337,1.63978915 8.481674,9.89966986 19.2883344,16.0437052 C29.4064529,21.7962758 41.0967954,25.525239 41.995374,24.5726583 C43.2342445,23.259335 40.3389252,20.4163507 33.309416,16.0437052" stroke="#3F8DFA" stroke-width="1.5" fill="none" stroke-miterlimit="10" opacity="35.4678199%"></path></g></g><g transform="translate(215.6306974697875 0.44200234301024466)"><g transform="translate(19.711143240160112 17.48713662561751)"><g clip-path="url(#i20)"><polygon points="8.8817842e-16,0 192.980507,0 192.980507,223.234607 8.8817842e-16,223.234607 8.8817842e-16,0" stroke="none" fill="url(#i21)"></polygon></g></g><g clip-path="url(#i22)"><polygon points="-2.22044605e-16,0 192.980507,0 192.980507,223.234607 -2.22044605e-16,223.234607 -2.22044605e-16,0" stroke="none" fill="url(#i23)"></polygon></g><g transform="translate(71.01515847292893 67.787196724159)"><g clip-path="url(#i24)"><polygon points="0,0 50.3998434,0 50.3998434,86.806102 0,86.806102 0,0" stroke="none" fill="url(#i25)"></polygon><g filter="url(#i26)"><path d="M50,-5 L50.0013147,16.1623105 C48.1824383,6.72428725 40.2969042,0 29.6376618,0 C15.9400371,0 2.84907442,11.1041188 0.398178249,24.8017434 C-1.53410236,35.6009176 3.72405372,44.7880444 12.7483005,48.1925415 L7.31757037,78.5388542 C6.50060498,83.1047291 9.5396966,86.806102 14.1055715,86.806102 C18.6714464,86.806102 23.0351006,83.1047291 23.852066,78.5388542 L29.2824525,48.1920519 C39.5243691,44.7871636 48.0694771,35.6003999 50.0016651,24.8017434 L50,24.806 L50,88 L-7,88 L-7,-5 L50,-5 Z" stroke="none" fill="#000000"></path><path d="M29.6376618,0 C43.3352864,0 52.4525613,11.1041188 50.0016651,24.8017434 C48.0694771,35.6003999 39.5243691,44.7871636 29.2824525,48.1920519 L23.852066,78.5388542 C23.0351006,83.1047291 18.6714464,86.806102 14.1055715,86.806102 C9.5396966,86.806102 6.50060498,83.1047291 7.31757037,78.5388542 L12.7483005,48.1925415 C3.72405372,44.7880444 -1.53410236,35.6009176 0.398178249,24.8017434 C2.84907442,11.1041188 15.9400371,0 29.6376618,0 Z" stroke="#000000" stroke-width="4" fill="none" stroke-miterlimit="10"></path></g></g></g></g></g></g></g></svg>