<?xml version="1.0" encoding="UTF-8"?><svg version="1.1" width="541px" height="411px" viewBox="0 0 541.0 411.0" xmlns="http://www.w3.org/2000/svg" xmlns:xlink="http://www.w3.org/1999/xlink"><defs><clipPath id="i0"><path d="M2000,0 L2000,2806 L0,2806 L0,0 L2000,0 Z"></path></clipPath><clipPath id="i1"><path d="M358.729551,0 C434.847463,0 529.006715,79.6800258 529.006715,162.856337 C529.006715,246.032649 464.787598,260.248053 449.541974,287.030937 C434.29635,313.813822 397.39583,384.31389 317.931089,404.220774 C238.466348,424.127657 137.731873,397.351962 57.3846608,360.214306 C-22.9625513,323.076649 -8.54057333,298.044286 37.3149837,244.504969 C67.885355,208.812091 83.1705407,175.329865 83.1705407,144.058293 C101.073733,67.7787763 139.850331,29.639018 199.500336,29.639018 C288.975343,29.639018 282.611639,0 358.729551,0 Z"></path></clipPath><clipPath id="i2"><path d="M358.729551,0 C434.847463,0 529.006715,79.6800258 529.006715,162.856337 C529.006715,246.032649 469.718643,255.130039 449.541974,287.030937 C429.365305,318.931836 397.39583,384.31389 317.931089,404.220774 C238.466348,424.127657 137.731873,397.351962 57.3846608,360.214306 C-22.9625513,323.076649 -8.54057333,298.044286 37.3149837,244.504969 C67.885355,208.812091 83.1705407,175.329865 83.1705407,144.058293 C101.073733,67.7787763 139.850331,29.639018 199.500336,29.639018 C288.975343,29.639018 282.611639,0 358.729551,0 Z"></path></clipPath><clipPath id="i3"><path d="M259,0 C402.04175,0 518,115.95825 518,259 C518,402.04175 402.04175,518 259,518 C115.95825,518 0,402.04175 0,259 C0,115.95825 115.95825,0 259,0 Z"></path></clipPath><radialGradient id="i4" cx="223.770502px" cy="48.411289px" r="518px" gradientTransform="translate(270.2931920164709 -175.35921260069864) rotate(90.0) scale(1.0 0.9609884692997744)" gradientUnits="userSpaceOnUse"><stop stop-color="#C0DAFF" offset="0%"></stop><stop stop-color="#83B6FF" offset="100%"></stop></radialGradient><clipPath id="i5"><path d="M30,0 C46.5685425,0 60,13.4314575 60,30 C60,46.5685425 46.5685425,60 30,60 C13.4314575,60 0,46.5685425 0,30 C0,13.4314575 13.4314575,0 30,0 Z"></path></clipPath><radialGradient id="i6" cx="31.8358422px" cy="16.2201193px" r="77.7303545px" gradientTransform="translate(48.05596144955 -15.615722888511067) rotate(90.0)" gradientUnits="userSpaceOnUse"><stop stop-color="rgba(57, 137, 250, 0.167204)" offset="0%"></stop><stop stop-color="#7DB0FF" offset="100%"></stop><stop stop-color="rgba(57, 137, 250, 0.282261)" offset="100%"></stop></radialGradient><clipPath id="i7"><path d="M45.5,0 C70.6289561,0 91,20.3710439 91,45.5 C91,70.6289561 70.6289561,91 45.5,91 C20.3710439,91 0,70.6289561 0,45.5 C0,20.3710439 20.3710439,0 45.5,0 Z"></path></clipPath><radialGradient id="i8" cx="51.0822626px" cy="45.5px" r="91px" gradientTransform="translate(96.58226256760942 -5.582262567611198) rotate(90.0)" gradientUnits="userSpaceOnUse"><stop stop-color="#84B5FF" offset="0%"></stop><stop stop-color="#5EACFE" offset="100%"></stop></radialGradient><clipPath id="i9"><path d="M66,0 C102.450793,0 132,23.5050506 132,52.5 C132,81.4949494 102.450793,105 66,105 C29.5492065,105 0,81.4949494 0,52.5 C0,23.5050506 29.5492065,0 66,0 Z"></path></clipPath><linearGradient id="i10" x1="79.793644px" y1="70.2956813px" x2="79.793644px" y2="5.9452443e-13px" gradientUnits="userSpaceOnUse"><stop stop-color="#297DF4" offset="0%"></stop><stop stop-color="#58B6FF" offset="100%"></stop></linearGradient><filter id="i11" x="-6.91642651%" y="-18.3206107%" filterUnits="userSpaceOnUse" width="109.221902%" height="124.427481%"><feGaussianBlur stdDeviation="4" in="SourceAlpha" result="i12"></feGaussianBlur><feOffset dx="0" dy="0" in="i12" result="i13"></feOffset><feColorMatrix values="0 0 0 0.2235294117647059 0 0 0 0 0.5372549019607843 0 0 0 0 0.9803921568627451 0 0 0 0 1.0 0" type="matrix" in="i13"></feColorMatrix></filter><clipPath id="i14"><path d="M165.5,0 C256.903126,0 331,25.7436269 331,57.5 C331,89.2563731 256.903126,115 165.5,115 C74.0968739,115 0,89.2563731 0,57.5 C0,25.7436269 74.0968739,0 165.5,0 Z"></path></clipPath><linearGradient id="i15" x1="22.1346135px" y1="57.5px" x2="339.77525px" y2="61.7381834px" gradientUnits="userSpaceOnUse"><stop stop-color="#95D1FF" offset="0%"></stop><stop stop-color="#69BDFF" offset="100%"></stop></linearGradient><linearGradient id="i16" x1="20.4492674px" y1="43.6299958px" x2="314.98035px" y2="75.0586876px" gradientUnits="userSpaceOnUse"><stop stop-color="#B7DFFF" offset="0%"></stop><stop stop-color="#69BDFF" offset="100%"></stop></linearGradient><clipPath id="i17"><path d="M77.5,0 C120.302068,0 155,10.5213084 155,23.5 C155,36.4786916 120.302068,47 77.5,47 C34.6979319,47 0,36.4786916 0,23.5 C0,10.5213084 34.6979319,0 77.5,0 Z"></path></clipPath><clipPath id="i18"><path d="M131.996938,-2.06057393e-13 C174.799006,-2.06057393e-13 209.496938,10.5213084 209.496938,23.5 L265.415523,152 C241.798745,204.364525 197.325884,234.388443 131.996938,242.071756 C66.667993,249.755069 22.6690135,230.532643 -1.98951966e-13,184.404476 L54.4969384,23.5 C54.4969384,10.5213084 89.1948703,-2.06057393e-13 131.996938,-2.06057393e-13 Z"></path></clipPath><linearGradient id="i19" x1="132.707761px" y1="0px" x2="132.707761px" y2="243.717315px" gradientUnits="userSpaceOnUse"><stop stop-color="#50B2FF" offset="0%"></stop><stop stop-color="rgba(193, 226, 255, 0)" offset="100%"></stop></linearGradient><clipPath id="i20"><path d="M23,0 C35.7025492,0 46,5.14872538 46,11.5 C46,17.8512746 35.7025492,23 23,23 C10.2974508,23 0,17.8512746 0,11.5 C0,5.14872538 10.2974508,0 23,0 Z"></path></clipPath><clipPath id="i21"><path d="M21,0 C32.5979797,0 42,5.14872538 42,11.5 C42,17.8512746 32.5979797,23 21,23 C9.40202025,23 0,17.8512746 0,11.5 C0,5.14872538 9.40202025,0 21,0 Z"></path></clipPath><clipPath id="i22"><path d="M21,0 C32.5979797,0 42,5.14872538 42,11.5 C42,17.8512746 32.5979797,23 21,23 C9.40202025,23 0,17.8512746 0,11.5 C0,5.14872538 9.40202025,0 21,0 Z"></path></clipPath><clipPath id="i23"><path d="M10,0 C15.5228475,0 20,4.4771525 20,10 C20,15.5228475 15.5228475,20 10,20 C4.4771525,20 0,15.5228475 0,10 C0,4.4771525 4.4771525,0 10,0 Z"></path></clipPath><linearGradient id="i24" x1="10px" y1="0px" x2="10px" y2="20px" gradientUnits="userSpaceOnUse"><stop stop-color="#8FCEFF" offset="0%"></stop><stop stop-color="#4CA7FC" offset="100%"></stop></linearGradient><clipPath id="i25"><path d="M17,0 C26.3888407,0 34,7.61115925 34,17 C34,26.3888407 26.3888407,34 17,34 C7.61115925,34 0,26.3888407 0,17 C0,7.61115925 7.61115925,0 17,0 Z"></path></clipPath><linearGradient id="i26" x1="17px" y1="0px" x2="17px" y2="34px" gradientUnits="userSpaceOnUse"><stop stop-color="#8FCEFF" offset="0%"></stop><stop stop-color="#4CA7FC" offset="100%"></stop></linearGradient><clipPath id="i27"><path d="M20.9225911,0 C32.4778191,0 41.8451822,9.36736311 41.8451822,20.9225911 C41.8451822,32.4778191 32.4778191,41.8451822 20.9225911,41.8451822 C9.36736311,41.8451822 0,32.4778191 0,20.9225911 C0,9.36736311 9.36736311,0 20.9225911,0 Z"></path></clipPath><linearGradient id="i28" x1="20.9225911px" y1="0px" x2="20.9225911px" y2="41.8451822px" gradientUnits="userSpaceOnUse"><stop stop-color="#8FCEFF" offset="0%"></stop><stop stop-color="#4CA7FC" offset="100%"></stop></linearGradient><clipPath id="i29"><path d="M3.62121769,0 C5.621161,0 7.24243538,1.62127438 7.24243538,3.62121769 C7.24243538,5.621161 5.621161,7.24243538 3.62121769,7.24243538 C1.62127438,7.24243538 0,5.621161 0,3.62121769 C0,1.62127438 1.62127438,0 3.62121769,0 Z"></path></clipPath><clipPath id="i30"><path d="M6.03536282,0 C9.36860166,0 12.0707256,2.70212397 12.0707256,6.03536282 C12.0707256,9.36860166 9.36860166,12.0707256 6.03536282,12.0707256 C2.70212397,12.0707256 0,9.36860166 0,6.03536282 C0,2.70212397 2.70212397,0 6.03536282,0 Z"></path></clipPath><clipPath id="i31"><path d="M4.42593273,0 C6.87030789,0 8.85186547,1.98155758 8.85186547,4.42593273 C8.85186547,6.87030789 6.87030789,8.85186547 4.42593273,8.85186547 C1.98155758,8.85186547 0,6.87030789 0,4.42593273 C0,1.98155758 1.98155758,0 4.42593273,0 Z"></path></clipPath><clipPath id="i32"><path d="M57.254,0 L57.4192438,0.01744552 L58.4720458,0.137098946 C59.3409809,0.239481637 60.1886938,0.348497717 61.0135127,0.463806921 L61.9921991,0.605176889 C71.6670326,2.04864802 77.9488311,4.37872969 77.9488311,7.00744349 C77.9488311,9.63615729 71.6670326,11.966239 61.9921991,13.4097101 L61.0135127,13.5510801 C60.1886938,13.6663893 59.3409809,13.7754053 58.4720458,13.877788 L57.4192438,13.9974415 L56.3467104,14.1105962 L55.2550874,14.2171215 C54.8881029,14.2515105 54.5180437,14.2847729 54.1450169,14.3168868 L53.0171408,14.4097614 C52.6382858,14.4395566 52.2565702,14.4681816 51.872101,14.4956146 L50.7105394,14.5743158 C50.5156047,14.5868294 50.3200083,14.5990396 50.1237636,14.6109436 L48.9386231,14.6786718 L47.7385657,14.7389213 L46.5242334,14.7915614 C46.1171482,14.8078254 45.7077908,14.8227994 45.2962682,14.8364616 L44.0553119,14.8734911 L42.8020065,14.9025192 L41.5369941,14.9234154 C41.3252187,14.9262132 41.1129823,14.9286667 40.9002983,14.9307732 L39.6189288,14.9392264 C39.4045075,14.939934 39.1896653,14.9402891 38.9744155,14.9402891 L38.3299023,14.9392264 L37.0485328,14.9307732 C36.8358487,14.9286667 36.6236123,14.9262132 36.411837,14.9234154 L35.1468245,14.9025192 L33.8935192,14.8734911 L32.6525629,14.8364616 C32.2410403,14.8227994 31.8316829,14.8078254 31.4245976,14.7915614 L30.2102654,14.7389213 L29.010208,14.6786718 L27.8250675,14.6109436 C27.6288228,14.5990396 27.4332264,14.5868294 27.2382917,14.5743158 L26.0767301,14.4956146 C25.8844955,14.4818981 25.6929493,14.4678836 25.5021049,14.4535738 L24.3655666,14.3641936 C23.989599,14.3332336 23.6165455,14.3011142 23.2465131,14.2678573 L22.1455861,14.1646957 C21.9636445,14.1469405 21.7824849,14.1289065 21.6021207,14.1105962 L20.5295873,13.9974415 L19.4767853,13.877788 C18.6078501,13.7754053 17.7601372,13.6663893 16.9353184,13.5510801 L15.9566319,13.4097101 C6.28179847,11.966239 -5.25801624e-13,9.63615729 -5.25801624e-13,7.00744349 C-5.25801624e-13,4.38701727 6.24225146,2.06334316 15.8652272,0.618855872 L15.865,1.325 L15.7263852,1.34653895 C15.6484763,1.35829325 15.5708007,1.37010113 15.4933602,1.38196218 L14.5754645,1.52681984 C14.4243986,1.55137922 14.2743,1.57614459 14.1251824,1.60111264 L13.2423581,1.7533265 L12.3837319,1.91024517 C12.1016288,1.96331781 11.8236678,2.01714801 11.5499577,2.0717092 L10.7416894,2.23755912 C4.51185945,3.55347858 0.689812664,5.25840677 0.689812664,7.00744349 C0.689812664,8.75648021 4.51185945,10.4614084 10.7416894,11.7773279 L11.5499577,11.9431778 C11.8236678,11.997739 12.1016288,12.0515692 12.3837319,12.1046418 L13.2423581,12.2615605 L14.1251824,12.4137743 C14.2743,12.4387424 14.4243986,12.4635078 14.5754645,12.4880671 L15.4933602,12.6329248 C15.6482412,12.6566469 15.8040624,12.6801563 15.9608102,12.7034498 L16.9123059,12.8405925 L17.8853844,12.9723926 L18.8793917,13.0986905 L19.8936742,13.219327 L20.9275778,13.3341424 L21.9804489,13.4429773 L23.0516334,13.5456724 L24.1404776,13.6420681 L25.2463276,13.7320049 L26.3685295,13.8153235 L27.5064296,13.8918643 L28.6593739,13.961468 L29.8267086,14.0239749 C30.0224273,14.0337925 30.2187183,14.0433078 30.4155681,14.0525174 L31.6032625,14.1040804 C31.8022927,14.112054 32.0018544,14.1197154 32.2019339,14.1270611 L33.4085168,14.1673214 C33.8127099,14.1794613 34.2188656,14.1903121 34.6268747,14.1998472 L35.8563537,14.2244791 L37.0963001,14.2410576 L38.3460599,14.2494233 C38.5551347,14.2501243 38.7645911,14.2504765 38.9744155,14.2504765 L39.6027712,14.2494233 L40.852531,14.2410576 L42.0924773,14.2244791 L43.3219564,14.1998472 C43.7299655,14.1903121 44.1361211,14.1794613 44.5403142,14.1673214 L45.7468971,14.1270611 L46.9410511,14.0792258 C47.1390047,14.0706309 47.3364132,14.0617269 47.533263,14.0525174 L48.7075477,13.9936185 L49.2894572,13.961468 L50.4424015,13.8918643 L51.5803015,13.8153235 L52.7025035,13.7320049 L53.8083535,13.6420681 L54.8971977,13.5456724 L55.9683822,13.4429773 L57.0212532,13.3341424 L58.0551569,13.219327 L59.0694393,13.0986905 L60.0634467,12.9723926 L61.0365252,12.8405925 L61.9880209,12.7034498 C62.1447686,12.6801563 62.3005898,12.6566469 62.4554709,12.6329248 L63.3733665,12.4880671 C63.5244325,12.4635078 63.6745311,12.4387424 63.8236487,12.4137743 L64.706473,12.2615605 L65.5650992,12.1046418 C65.8472022,12.0515692 66.1251633,11.997739 66.3988734,11.9431778 L67.2071417,11.7773279 C73.4369716,10.4614084 77.2590184,8.75648021 77.2590184,7.00744349 C77.2590184,5.25840677 73.4369716,3.55347858 67.2071417,2.23755912 L66.3988734,2.0717092 C66.1251633,2.01714801 65.8472022,1.96331781 65.5650992,1.91024517 L64.706473,1.7533265 L63.8236487,1.60111264 C63.6745311,1.57614459 63.5244325,1.55137922 63.3733665,1.52681984 L62.4554709,1.38196218 C62.3005898,1.35824009 62.1447686,1.33473065 61.9880209,1.31143717 L61.0365252,1.17429448 L60.0634467,1.04249442 L59.0694393,0.916196444 L58.0551569,0.79556002 L57.254,0.706 L57.254,0 Z"></path></clipPath><clipPath id="i33"><path d="M12,0 C18.627417,0 24,5.372583 24,12 C24,18.627417 18.627417,24 12,24 C5.372583,24 0,18.627417 0,12 C0,5.372583 5.372583,0 12,0 Z"></path></clipPath><linearGradient id="i34" x1="12px" y1="0px" x2="12px" y2="24px" gradientUnits="userSpaceOnUse"><stop stop-color="#8FCEFF" offset="0%"></stop><stop stop-color="#4CA7FC" offset="100%"></stop></linearGradient></defs><g transform="translate(-520.0 -493.0)"><g clip-path="url(#i0)"><g transform="translate(520.0 493.0)"><g clip-path="url(#i1)"><polygon points="0,0 529.006715,0 529.006715,410.99237 0,410.99237 0,0" stroke="none" fill="#E9F2FF"></polygon></g><g clip-path="url(#i2)"><g transform="translate(58.36530480608087 230.96565151995492)"><g clip-path="url(#i3)"><polygon points="0,0 470.64141,0 470.64141,180.026719 0,180.026719 0,0" stroke="none" fill="url(#i4)"></polygon></g></g><g transform="translate(145.3653048060809 302.9656515199549)"><g clip-path="url(#i5)"><polygon points="0,0 60,0 60,60 0,60 0,0" stroke="none" fill="url(#i6)"></polygon><g transform="translate(2.0 4.0)"><path d="M58,-4 L58.0009882,19.2097477 C53.667828,7.97246594 42.7649486,0 30,0 C13.4314575,0 0,13.4314575 0,30 C0,41.1144572 6.0440917,50.8172411 15.0247708,56.0008475 L-2,56 L-2,-4 L58,-4 Z M58.0009882,40.7902523 L58,56 L44.9752292,56.0008475 C50.8825368,52.5911769 55.5192593,47.2261756 58.0009882,40.7902523 Z" stroke="none" fill="#62A6FF"></path></g></g></g><g transform="translate(338.3653048060809 302.9656515199549)"><g opacity="72.1121652%"><g clip-path="url(#i7)"><polygon points="0,0 91,0 91,91 0,91 0,0" stroke="none" fill="url(#i8)"></polygon><g transform="translate(2.0 4.0)"><path d="M89,-4 L89.002196,32.1243052 C83.2896361,13.5229596 65.9740463,0 45.5,0 C20.3710439,0 0,20.3710439 0,45.5 C0,63.9719255 11.0075008,79.8729115 26.8209105,87.001366 L-2,87 L-2,-4 L89,-4 Z M89.002196,58.8756948 L89,87 L64.1790895,87.001366 C76.0075331,81.6692761 85.1470455,71.4289088 89.002196,58.8756948 Z" stroke="none" fill="rgba(57, 137, 250, 0.84304)"></path></g></g></g></g></g><g transform="translate(179.96049524167796 7.539740022961354) rotate(8.0)"><g transform="translate(99.00000000000011 9.237055564881302e-14)"><g clip-path="url(#i9)"><polygon points="0,0 132,0 132,105 0,105 0,0" stroke="none" fill="url(#i10)"></polygon><g transform="translate(-99.0 35.0)"><path d="M165.5,115 C256.903126,115 331,89.2563731 331,57.5 C331,25.7436269 256.903126,0 165.5,0 C74.0968739,0 0,25.7436269 0,57.5 C0,89.2563731 74.0968739,115 165.5,115 Z" stroke="none" fill="#000000" filter="url(#i11)"></path><g clip-path="url(#i14)"><polygon points="99,0 231,0 231,70 99,70 99,0" stroke="none" fill="url(#i15)"></polygon></g></g></g></g><g transform="translate(2.5579538487363607e-13 35.00000000000141)"><g clip-path="url(#i14)"><polygon points="0,0 331,0 331,115 0,115 0,0" stroke="none" fill="url(#i16)"></polygon></g></g><g transform="translate(87.99999999999997 86.99999999999972)"><g clip-path="url(#i17)"><polygon points="0,0 155,0 155,47 0,47 0,0" stroke="none" fill="#237EFF"></polygon></g></g><g transform="translate(33.5030616277125 87.00000000004643)"><g clip-path="url(#i18)"><polygon points="-1.98951966e-13,-2.0250468e-12 265.415523,-2.0250468e-12 265.415523,243.717315 -1.98951966e-13,243.717315 -1.98951966e-13,-2.0250468e-12" stroke="none" fill="url(#i19)" opacity="60.0144159%"></polygon></g></g><g transform="translate(259.08141571295766 61.83974596216132) rotate(29.999999999999996)"><g clip-path="url(#i20)"><polygon points="1.81771265e-12,1.8189894e-12 46,1.8189894e-12 46,23 1.81771265e-12,23 1.81771265e-12,1.8189894e-12" stroke="none" fill="#FFFFFF" opacity="55.3478423%"></polygon></g></g><g transform="translate(23.081415712957895 82.83974596219227) rotate(-29.999999999999996)"><g clip-path="url(#i20)"><polygon points="9.09494702e-13,-1.8189894e-12 46,-1.8189894e-12 46,23 9.09494702e-13,23 9.09494702e-13,-1.8189894e-12" stroke="none" fill="#FFFFFF" opacity="55.3478423%"></polygon></g></g><g transform="translate(181.03308473142448 45.92553378427679) rotate(8.0)"><g clip-path="url(#i21)"><polygon points="-4.54747351e-13,-1.8189894e-12 42,-1.8189894e-12 42,23 -4.54747351e-13,23 -4.54747351e-13,-1.8189894e-12" stroke="none" fill="#FFFFFF" opacity="55.3478423%"></polygon></g></g><g transform="translate(109.13944888638866 48.35704034776779) rotate(-4.0)"><g clip-path="url(#i22)"><polygon points="-2.27373675e-13,-1.16573418e-15 42,-1.16573418e-15 42,23 -2.27373675e-13,23 -2.27373675e-13,-1.16573418e-15" stroke="none" fill="#FFFFFF" opacity="46.4611235%"></polygon></g></g></g><g transform="translate(15.365304806080871 178.9656515199549)"><g clip-path="url(#i23)"><polygon points="0,0 20,0 20,20 0,20 0,0" stroke="none" fill="url(#i24)"></polygon></g></g><g transform="translate(131.3653048060809 146.9656515199549)"><g clip-path="url(#i25)"><polygon points="0,0 34,0 34,34 0,34 0,0" stroke="none" fill="url(#i26)" opacity="23.5677083%"></polygon></g></g><g transform="translate(463.69847582621634 217.15393578249456) rotate(9.0)"><g transform="translate(14.236702606828988 0.0)"><g clip-path="url(#i27)"><polygon points="-4.54747351e-13,1.8189894e-12 41.8451822,1.8189894e-12 41.8451822,41.8451822 -4.54747351e-13,41.8451822 -4.54747351e-13,1.8189894e-12" stroke="none" fill="url(#i28)"></polygon></g></g><g transform="translate(35.15929371015022 6.437720339483456)"><g clip-path="url(#i29)"><polygon points="-4.54747351e-13,1.8189894e-12 7.24243538,1.8189894e-12 7.24243538,7.24243538 -4.54747351e-13,7.24243538 -4.54747351e-13,1.8189894e-12" stroke="none" fill="#31A1FF"></polygon></g></g><g transform="translate(22.28385303118331 22.53202118819211)"><g clip-path="url(#i30)"><polygon points="-4.54747351e-13,0 12.0707256,0 12.0707256,12.0707256 -4.54747351e-13,12.0707256 -4.54747351e-13,0" stroke="none" fill="#1E98FD"></polygon></g></g><g transform="translate(42.40172909206913 22.53202118819211)"><g clip-path="url(#i31)"><polygon points="-4.54747351e-13,3.63797881e-12 8.85186547,3.63797881e-12 8.85186547,8.85186547 -4.54747351e-13,8.85186547 -4.54747351e-13,3.63797881e-12" stroke="none" fill="#1E99FF"></polygon></g></g><g transform="translate(-2.1316282072803006e-14 31.475548139279574) rotate(-21.999999999999996)"><g clip-path="url(#i32)"><polygon points="-1.43529633e-12,1.8189894e-12 77.9488311,1.8189894e-12 77.9488311,14.9402891 -1.43529633e-12,14.9402891 -1.43529633e-12,1.8189894e-12" stroke="none" fill="#6B97FF"></polygon></g></g></g><g transform="translate(83.06066700288999 205.7314345945433)"><path d="M0,54.0328326 C20.2030919,58.7126743 35.9713045,58.7126743 47.3046378,54.0328326 C64.3046378,47.01307 87.4411101,27.4278255 55.8728739,23.4020904 C24.3046378,19.3763552 48.187831,51.7568289 77.297626,40.4724021 C96.7041561,32.9494509 110.37316,19.4586502 118.304638,0" stroke="#48A4FB" stroke-width="3" fill="none" stroke-linecap="round" stroke-miterlimit="10" opacity="59.9888393%"></path></g><g transform="translate(25.055888826397187 321.3929932242772)"><g transform="translate(9.309415979683763 0.5726582956776838)"><g clip-path="url(#i33)"><polygon points="0,0 24,0 24,24 0,24 0,0" stroke="none" fill="url(#i34)" opacity="26.2555804%"></polygon></g></g><path d="M13.4072979,3.89564881 C5.51916791,0.302808538 1.06579237,-0.804854967 0.0471712244,0.572658296 C-0.74193337,1.63978915 8.481674,9.89966986 19.2883344,16.0437052 C29.4064529,21.7962758 41.0967954,25.525239 41.995374,24.5726583 C43.2342445,23.259335 40.3389252,20.4163507 33.309416,16.0437052" stroke="#3F8DFA" stroke-width="1.5" fill="none" stroke-miterlimit="10" opacity="35.4678199%"></path></g></g></g></g></svg>