<?xml version="1.0" encoding="UTF-8"?><svg version="1.1" width="528px" height="430px" viewBox="0 0 528.0 430.0" xmlns="http://www.w3.org/2000/svg" xmlns:xlink="http://www.w3.org/1999/xlink"><defs><clipPath id="i0"><path d="M2000,0 L2000,2806 L0,2806 L0,0 L2000,0 Z"></path></clipPath><clipPath id="i1"><path d="M370.876015,6.13935788 C471.203896,33.2224227 531.830533,187.354217 494.718243,292.129635 C457.605953,396.905052 290.220617,449.70545 186.442778,423.239933 C82.6649387,396.774417 -8.85693777,331.343965 0.685374269,218.029752 C10.2276863,104.715538 144.502921,115.07729 196.952978,81.7296704 C249.403036,48.382051 270.548134,-20.943707 370.876015,6.13935788 Z"></path></clipPath><clipPath id="i2"><path d="M15,0 C23.2842712,0 30,6.71572875 30,15 C30,23.2842712 23.2842712,30 15,30 C6.71572875,30 0,23.2842712 0,15 C0,6.71572875 6.71572875,0 15,0 Z"></path></clipPath><linearGradient id="i3" x1="15px" y1="0px" x2="15px" y2="30px" gradientUnits="userSpaceOnUse"><stop stop-color="#8FCEFF" offset="0%"></stop><stop stop-color="#4CA7FC" offset="100%"></stop></linearGradient><clipPath id="i4"><path d="M265,0 C411.355459,0 530,118.644541 530,265 C530,411.355459 411.355459,530 265,530 C118.644541,530 0,411.355459 0,265 C0,118.644541 118.644541,0 265,0 Z"></path></clipPath><radialGradient id="i5" cx="228.954374px" cy="49.532786px" r="530px" gradientTransform="translate(276.55481036434287 -179.42158818218203) rotate(90.0) scale(1.0 0.9609884692997744)" gradientUnits="userSpaceOnUse"><stop stop-color="#C0DAFF" offset="0%"></stop><stop stop-color="#83B6FF" offset="100%"></stop></radialGradient><clipPath id="i6"><path d="M30,0 C46.5685425,0 60,13.4314575 60,30 C60,46.5685425 46.5685425,60 30,60 C13.4314575,60 0,46.5685425 0,30 C0,13.4314575 13.4314575,0 30,0 Z"></path></clipPath><radialGradient id="i7" cx="31.8358422px" cy="16.2201193px" r="77.7303545px" gradientTransform="translate(48.05596144955 -15.615722888511067) rotate(90.0)" gradientUnits="userSpaceOnUse"><stop stop-color="rgba(57, 137, 250, 0.167204)" offset="0%"></stop><stop stop-color="#7DB0FF" offset="100%"></stop><stop stop-color="rgba(57, 137, 250, 0.282261)" offset="100%"></stop></radialGradient><radialGradient id="i8" cx="15.9179211px" cy="8.11005964px" r="38.8651773px" gradientTransform="translate(24.027980724775 -7.807861444255534) rotate(90.0)" gradientUnits="userSpaceOnUse"><stop stop-color="rgba(57, 137, 250, 0.167204)" offset="0%"></stop><stop stop-color="#7DB0FF" offset="100%"></stop><stop stop-color="rgba(57, 137, 250, 0.282261)" offset="100%"></stop></radialGradient><clipPath id="i9"><path d="M49,0 C76.0619527,0 98,21.9380473 98,49 C98,76.0619527 76.0619527,98 49,98 C21.9380473,98 0,76.0619527 0,49 C0,21.9380473 21.9380473,0 49,0 Z"></path></clipPath><radialGradient id="i10" cx="55.0116674px" cy="49px" r="98px" gradientTransform="translate(104.01166738050244 -6.011667380504373) rotate(90.0)" gradientUnits="userSpaceOnUse"><stop stop-color="#84B5FF" offset="0%"></stop><stop stop-color="#5EACFE" offset="100%"></stop></radialGradient><clipPath id="i11"><path d="M8.5,0 C13.1944204,0 17,3.80557963 17,8.5 C17,13.1944204 13.1944204,17 8.5,17 C3.80557963,17 0,13.1944204 0,8.5 C0,3.80557963 3.80557963,0 8.5,0 Z"></path></clipPath><linearGradient id="i12" x1="8.5px" y1="0px" x2="8.5px" y2="17px" gradientUnits="userSpaceOnUse"><stop stop-color="#8FCEFF" offset="0%"></stop><stop stop-color="#4CA7FC" offset="100%"></stop></linearGradient><clipPath id="i13"><path d="M22.7552634,0 C35.3226483,0 45.5105268,10.1878784 45.5105268,22.7552634 C45.5105268,35.3226483 35.3226483,45.5105268 22.7552634,45.5105268 C10.1878784,45.5105268 0,35.3226483 0,22.7552634 C0,10.1878784 10.1878784,0 22.7552634,0 Z"></path></clipPath><linearGradient id="i14" x1="22.7552634px" y1="0px" x2="22.7552634px" y2="45.5105268px" gradientUnits="userSpaceOnUse"><stop stop-color="#8FCEFF" offset="0%"></stop><stop stop-color="#4CA7FC" offset="100%"></stop></linearGradient><clipPath id="i15"><path d="M3.93841097,0 C6.11353529,0 7.87682194,1.76328665 7.87682194,3.93841097 C7.87682194,6.11353529 6.11353529,7.87682194 3.93841097,7.87682194 C1.76328665,7.87682194 0,6.11353529 0,3.93841097 C0,1.76328665 1.76328665,0 3.93841097,0 Z"></path></clipPath><clipPath id="i16"><path d="M6.56401829,0 C10.1892255,0 13.1280366,2.93881109 13.1280366,6.56401829 C13.1280366,10.1892255 10.1892255,13.1280366 6.56401829,13.1280366 C2.93881109,13.1280366 0,10.1892255 0,6.56401829 C0,2.93881109 2.93881109,0 6.56401829,0 Z"></path></clipPath><clipPath id="i17"><path d="M4.81361341,0 C7.47209869,0 9.62722682,2.15512813 9.62722682,4.81361341 C9.62722682,7.47209869 7.47209869,9.62722682 4.81361341,9.62722682 C2.15512813,9.62722682 0,7.47209869 0,4.81361341 C0,2.15512813 2.15512813,0 4.81361341,0 Z"></path></clipPath><clipPath id="i18"><path d="M62.269,-0.001 L62.448767,0.0189736252 L63.593787,0.149107852 C64.5388348,0.260458549 65.4608014,0.379023674 66.3578686,0.504433156 L67.4222811,0.658186141 C77.9445622,2.22809522 84.7766021,4.76227571 84.7766021,7.62124641 C84.7766021,10.4802171 77.9445622,13.0143976 67.4222811,14.5843067 L66.3578686,14.7380597 C65.4608014,14.8634691 64.5388348,14.9820343 63.593787,15.093385 L62.448767,15.2235192 L61.2822872,15.3465855 L60.0950457,15.4624417 C59.6959158,15.4998429 59.2934421,15.5360188 58.8877408,15.5709457 L57.6610706,15.6719555 C57.2490306,15.7043605 56.8338793,15.7354929 56.4157333,15.7653288 L55.1524271,15.8509237 C54.9404174,15.8645334 54.7276882,15.8778131 54.5142538,15.8907598 L53.2253033,15.9644205 L51.9201294,16.0299474 L50.5994301,16.0871985 C50.156687,16.1048871 49.7114728,16.1211727 49.2639037,16.1360316 L47.9142483,16.1763046 L46.5511622,16.2078754 L45.1753435,16.230602 C44.9450181,16.2336448 44.7141913,16.2363132 44.4828776,16.2386042 L43.0892691,16.2477978 C42.8560661,16.2485674 42.6224052,16.2489537 42.3883011,16.2489537 L41.687333,16.2477978 L40.2937245,16.2386042 L39.6012586,16.230602 L38.2254399,16.2078754 L36.8623538,16.1763046 L35.5126985,16.1360316 C35.0651294,16.1211727 34.6199151,16.1048871 34.1771721,16.0871985 L32.8564728,16.0299474 L31.5512988,15.9644205 L30.2623483,15.8907598 C30.048914,15.8778131 29.8361847,15.8645334 29.624175,15.8509237 L28.3608688,15.7653288 C28.1517958,15.7504109 27.9434715,15.7351688 27.7359104,15.7196056 L26.4998194,15.6223962 C26.0909197,15.5887243 25.6851893,15.5537916 25.2827446,15.5176216 L24.0853842,15.4054237 C23.8875057,15.3861133 23.6904778,15.3664996 23.494315,15.3465855 L22.3278352,15.2235192 L21.1828151,15.093385 C20.2377673,14.9820343 19.3158007,14.8634691 18.4187335,14.7380597 L17.354321,14.5843067 C6.83203998,13.0143976 -5.75539616e-13,10.4802171 -5.75539616e-13,7.62124641 C-5.75539616e-13,4.77128306 6.78905831,2.24406661 17.2549778,0.673053106 L17.255,1.441 L17.1039062,1.46448632 C17.0191731,1.47727022 16.9346937,1.49011239 16.8504699,1.50301237 L15.852173,1.66055856 C15.6878747,1.68726916 15.5246286,1.7142038 15.3624493,1.74135888 L14.4022958,1.90690561 L13.46846,2.07756925 C13.1616467,2.13529069 12.8593382,2.19383604 12.561653,2.2531764 L11.6825861,2.43355361 C4.9070667,3.86473839 0.750235417,5.71900633 0.750235417,7.62124641 C0.750235417,9.52348648 4.9070667,11.3777544 11.6825861,12.8089392 L12.561653,12.9893164 C12.8593382,13.0486568 13.1616467,13.1072021 13.46846,13.1649236 L14.4022958,13.3355872 L15.3624493,13.5011339 C15.5246286,13.528289 15.6878747,13.5552237 15.852173,13.5819343 L16.8504699,13.7394804 C17.0189174,13.7652804 17.1883875,13.7908491 17.3588652,13.8161829 L18.3937053,13.9653384 L19.4520186,14.1086832 L20.5330941,14.246044 L21.6362206,14.3772473 L22.7606869,14.5021198 L23.9057821,14.6204879 L25.0707948,14.7321783 L26.2550141,14.8370176 L27.4577288,14.9348323 L28.6782278,15.025449 L29.9158,15.1086942 L31.1697341,15.1843947 L32.4393192,15.2523768 C32.6521814,15.2630544 32.8656662,15.2734031 33.0797586,15.2834193 L34.3714867,15.3394989 C34.5879505,15.348171 34.8049924,15.3565035 35.0225976,15.3644926 L36.3348687,15.4082794 C36.7744663,15.4214827 37.2161983,15.4332839 37.6599461,15.4436543 L38.9971189,15.4704438 L40.3456759,15.4884744 L41.7049059,15.4975729 C41.9322941,15.4983353 42.1600975,15.4987183 42.3883011,15.4987183 L43.0716962,15.4975729 L44.4309263,15.4884744 L45.7794832,15.4704438 L47.116656,15.4436543 C47.5604039,15.4332839 48.0021359,15.4214827 48.4417335,15.4082794 L49.7540046,15.3644926 L51.0527581,15.3124673 C51.268051,15.3031195 51.4827511,15.2934356 51.6968435,15.2834193 L52.9739874,15.2193614 C53.1855899,15.2080298 53.396555,15.196373 53.606868,15.1843947 L54.8608022,15.1086942 L56.0983743,15.025449 L57.3188733,14.9348323 L58.521588,14.8370176 L59.7058073,14.7321783 L60.8708201,14.6204879 L62.0159152,14.5021198 L63.1403816,14.3772473 L64.2435081,14.246044 L65.3245835,14.1086832 L66.3828969,13.9653384 L67.4177369,13.8161829 C67.5882147,13.7908491 67.7576847,13.7652804 67.9261323,13.7394804 L68.9244291,13.5819343 C69.0887274,13.5552237 69.2519736,13.528289 69.4141528,13.5011339 L70.3743064,13.3355872 L71.3081422,13.1649236 C71.6149555,13.1072021 71.917264,13.0486568 72.2149491,12.9893164 L73.0940161,12.8089392 C79.8695354,11.3777544 84.0263667,9.52348648 84.0263667,7.62124641 C84.0263667,5.71900633 79.8695354,3.86473839 73.0940161,2.43355361 L72.2149491,2.2531764 C71.917264,2.19383604 71.6149555,2.13529069 71.3081422,2.07756925 L70.3743064,1.90690561 L69.4141528,1.74135888 C69.2519736,1.7142038 69.0887274,1.68726916 68.9244291,1.66055856 L67.9261323,1.50301237 C67.7576847,1.4772124 67.5882147,1.45164369 67.4177369,1.42630987 L66.3828969,1.27715444 L65.3245835,1.13380962 L64.2435081,0.996448829 L63.1403816,0.8652455 L62.269,0.768 L62.269,-0.001 Z"></path></clipPath><clipPath id="i19"><path d="M19.5,0 C30.2695526,0 39,8.73044738 39,19.5 C39,30.2695526 30.2695526,39 19.5,39 C8.73044738,39 0,30.2695526 0,19.5 C0,8.73044738 8.73044738,0 19.5,0 Z"></path></clipPath><linearGradient id="i20" x1="19.5px" y1="0px" x2="19.5px" y2="39px" gradientUnits="userSpaceOnUse"><stop stop-color="#8FCEFF" offset="0%"></stop><stop stop-color="#4CA7FC" offset="100%"></stop></linearGradient><clipPath id="i21"><path d="M182.702604,145.085128 C190.434591,145.085128 196.702604,151.353141 196.702604,159.085128 L196.702604,194.240829 C196.702604,200.209736 191.785039,204.774194 186.164965,204.774194 L10.5376395,204.774194 C4.56631053,204.774194 0,200.209736 0,194.240829 L0,159.085128 C-9.46895252e-16,151.353141 6.2680135,145.085128 14,145.085128 Z M182.702604,72.5425639 C190.434591,72.5425639 196.702604,78.8105774 196.702604,86.5425639 L196.702604,118.23163 C196.702604,125.963617 190.434591,132.23163 182.702604,132.23163 L14,132.23163 C6.2680135,132.23163 -2.60581843e-15,125.963617 0,118.23163 L0,86.5425639 C8.29461588e-16,78.8105774 6.2680135,72.5425639 14,72.5425639 Z M181.598654,0 C189.677511,0 196.35135,6.671131 196.702604,14.7467105 L196.702604,44.6890662 C196.702604,52.9733374 189.986876,59.6890662 181.702604,59.6890662 L15,59.6890662 C6.71572875,59.6890662 2.79088747e-15,52.9733374 0,44.6890662 L0,14.7467105 C0,6.671131 6.67383843,0 14.7526953,0 Z"></path></clipPath><linearGradient id="i22" x1="98.3513022px" y1="-43.7348055px" x2="98.3513022px" y2="204.774194px" gradientUnits="userSpaceOnUse"><stop stop-color="#AFDBFF" offset="0%"></stop><stop stop-color="#29A0FF" offset="100%"></stop></linearGradient><clipPath id="i23"><path d="M63.0804904,0 L63.0804904,12.6160981 L0,12.6160981 L0,0 L63.0804904,0 Z"></path></clipPath><filter id="i24" x="-22.5%" y="-62.0689655%" filterUnits="userSpaceOnUse" width="125%" height="168.965517%"><feGaussianBlur stdDeviation="2" in="SourceAlpha" result="i25"></feGaussianBlur><feOffset dx="0" dy="2" in="i25" result="i26"></feOffset><feColorMatrix values="0 0 0 0.0 0 0 0 0 0.2851379764034119 0 0 0 0 0.6826030344202898 0 0 0 0 0.244017701048951 0" type="matrix" in="i26"></feColorMatrix></filter><clipPath id="i27"><path d="M63.0804904,0 L63.0804904,12.6160981 L0,12.6160981 L0,0 L63.0804904,0 Z"></path></clipPath><filter id="i28" x="-22.5%" y="-62.0689655%" filterUnits="userSpaceOnUse" width="125%" height="168.965517%"><feGaussianBlur stdDeviation="2" in="SourceAlpha" result="i29"></feGaussianBlur><feOffset dx="0" dy="2" in="i29" result="i30"></feOffset><feColorMatrix values="0 0 0 0.0 0 0 0 0 0.2851379764034119 0 0 0 0 0.6826030344202898 0 0 0 0 0.244017701048951 0" type="matrix" in="i30"></feColorMatrix></filter><clipPath id="i31"><path d="M63.0804904,0 L63.0804904,12.6160981 L0,12.6160981 L0,0 L63.0804904,0 Z"></path></clipPath><filter id="i32" x="-22.5%" y="-62.0689655%" filterUnits="userSpaceOnUse" width="125%" height="168.965517%"><feGaussianBlur stdDeviation="2" in="SourceAlpha" result="i33"></feGaussianBlur><feOffset dx="0" dy="2" in="i33" result="i34"></feOffset><feColorMatrix values="0 0 0 0.0 0 0 0 0 0.2851379764034119 0 0 0 0 0.6826030344202898 0 0 0 0 0.244017701048951 0" type="matrix" in="i34"></feColorMatrix></filter><clipPath id="i35"><path d="M8.46499487,0 C13.4029085,0 17.2826979,3.87526341 17.6354059,8.45512033 C17.6354059,13.3872738 13.7556167,17.2625374 9.17041104,17.6148339 C4.58520542,17.9671305 0.352707982,13.7395705 0,9.15971362 C0,4.22756016 3.87978925,0 8.46499487,0 Z"></path></clipPath><filter id="i36" x="-52.9411765%" y="-52.9411765%" filterUnits="userSpaceOnUse" width="158.823529%" height="158.823529%"><feGaussianBlur stdDeviation="2" in="SourceAlpha" result="i37"></feGaussianBlur><feOffset dx="0" dy="2" in="i37" result="i38"></feOffset><feColorMatrix values="0 0 0 0.0 0 0 0 0 0.2851379764034119 0 0 0 0 0.6826030344202898 0 0 0 0 0.244017701048951 0" type="matrix" in="i38"></feColorMatrix></filter><clipPath id="i39"><path d="M8.81088833,0 C12.3352437,0 15.5071635,2.1441223 16.9169055,5.36030574 C18.3266476,8.57648919 17.6217764,12.50738 15.1547279,15.0088561 C12.6876791,17.5103322 8.81088833,18.2250395 5.63896855,17.1529784 C2.46704878,15.7235634 0,12.50738 0,8.93384277 C0.352435599,3.93089081 4.22922636,0 8.81088833,0 Z"></path></clipPath><filter id="i40" x="-52.9411765%" y="-52.9411765%" filterUnits="userSpaceOnUse" width="158.823529%" height="158.823529%"><feGaussianBlur stdDeviation="2" in="SourceAlpha" result="i41"></feGaussianBlur><feOffset dx="0" dy="2" in="i41" result="i42"></feOffset><feColorMatrix values="0 0 0 0.0 0 0 0 0 0.2851379764034119 0 0 0 0 0.6826030344202898 0 0 0 0 0.244017701048951 0" type="matrix" in="i42"></feColorMatrix></filter><clipPath id="i43"><path d="M8.7853273,0 C13.3747284,0 17.2580676,3.87978925 17.6110983,8.46499487 C17.9641293,13.4029085 14.4338207,17.2826979 9.49138892,17.6354059 C6.3141113,17.6354059 3.13683367,16.2245734 1.3716795,13.4029085 C-0.393474669,10.5812436 -0.393474669,7.40687051 1.01864858,4.58520562 C2.43077184,1.76354074 5.60804967,0 8.7853273,0 Z"></path></clipPath><filter id="i44" x="-52.9411765%" y="-52.9411765%" filterUnits="userSpaceOnUse" width="158.823529%" height="158.823529%"><feGaussianBlur stdDeviation="2" in="SourceAlpha" result="i45"></feGaussianBlur><feOffset dx="0" dy="2" in="i45" result="i46"></feOffset><feColorMatrix values="0 0 0 0.0 0 0 0 0 0.2851379764034119 0 0 0 0 0.6826030344202898 0 0 0 0 0.244017701048951 0" type="matrix" in="i46"></feColorMatrix></filter><clipPath id="i47"><path d="M8.46499487,0 C13.4029085,0 17.2826979,3.87978925 17.6354059,8.46499487 C17.6354059,13.4029085 13.7556167,17.6354059 9.17041104,17.6354059 C4.23249743,17.6354059 0.352707982,13.7556167 0,9.17041104 C0,4.23249743 3.87978925,0.352707982 8.46499487,0 Z"></path></clipPath><filter id="i48" x="-52.9411765%" y="-52.9411765%" filterUnits="userSpaceOnUse" width="158.823529%" height="158.823529%"><feGaussianBlur stdDeviation="2" in="SourceAlpha" result="i49"></feGaussianBlur><feOffset dx="0" dy="2" in="i49" result="i50"></feOffset><feColorMatrix values="0 0 0 0.0 0 0 0 0 0.2851379764034119 0 0 0 0 0.6826030344202898 0 0 0 0 0.244017701048951 0" type="matrix" in="i50"></feColorMatrix></filter><clipPath id="i51"><path d="M8.81770285,0 C13.7556165,0 17.6354059,3.87978925 17.6354059,8.81770285 C17.6354059,13.7556165 13.7556167,17.6354059 8.81770285,17.6354059 C3.87978925,17.6354059 0,13.7556167 0,8.81770285 C0,3.87978904 3.87978925,0 8.81770285,0 Z"></path></clipPath><filter id="i52" x="-52.9411765%" y="-52.9411765%" filterUnits="userSpaceOnUse" width="158.823529%" height="158.823529%"><feGaussianBlur stdDeviation="2" in="SourceAlpha" result="i53"></feGaussianBlur><feOffset dx="0" dy="2" in="i53" result="i54"></feOffset><feColorMatrix values="0 0 0 0.0 0 0 0 0 0.2851379764034119 0 0 0 0 0.6826030344202898 0 0 0 0 0.244017701048951 0" type="matrix" in="i54"></feColorMatrix></filter><clipPath id="i55"><path d="M8.81770306,0 C13.7556169,0 17.6354059,3.87978925 17.6354059,8.81770285 C17.6354059,13.7556165 13.7556167,17.6354059 8.81770306,17.6354059 C3.87978945,17.6354059 0,13.7556167 0,8.81770285 C0,3.87978904 3.87978925,0 8.81770306,0 Z"></path></clipPath><filter id="i56" x="-52.9411765%" y="-52.9411765%" filterUnits="userSpaceOnUse" width="158.823529%" height="158.823529%"><feGaussianBlur stdDeviation="2" in="SourceAlpha" result="i57"></feGaussianBlur><feOffset dx="0" dy="2" in="i57" result="i58"></feOffset><feColorMatrix values="0 0 0 0.0 0 0 0 0 0.2851379764034119 0 0 0 0 0.6826030344202898 0 0 0 0 0.244017701048951 0" type="matrix" in="i58"></feColorMatrix></filter></defs><g transform="translate(-537.0 -2093.0)"><g clip-path="url(#i0)"><g transform="translate(400.0 1970.0)"><g transform="translate(137.0 123.0)"><g clip-path="url(#i1)"><polygon points="-2.84217094e-14,1.42108547e-14 505.722244,1.42108547e-14 505.722244,430 -2.84217094e-14,430 -2.84217094e-14,1.42108547e-14" stroke="none" fill="#E9F2FF"></polygon><g transform="translate(472.1425966305354 288.5919666823884)"><g clip-path="url(#i2)"><polygon points="0,0 30,0 30,30 0,30 0,0" stroke="none" fill="url(#i3)" opacity="23.5677083%"></polygon></g></g><g transform="translate(7.0 259.0)"><g clip-path="url(#i4)"><polygon points="0,0 498.722244,0 498.722244,171 0,171 0,0" stroke="none" fill="url(#i5)"></polygon></g></g><g transform="translate(134.1385989064042 326.9996205453535)"><g clip-path="url(#i6)"><polygon points="0,0 60,0 60,60 0,60 0,0" stroke="none" fill="url(#i7)"></polygon><g transform="translate(2.0 4.0)"><path d="M58,-4 L58.0009882,19.2097477 C53.667828,7.97246594 42.7649486,0 30,0 C13.4314575,0 0,13.4314575 0,30 C0,41.1144572 6.0440917,50.8172411 15.0247708,56.0008475 L-2,56 L-2,-4 L58,-4 Z M58.0009882,40.7902523 L58,56 L44.9752292,56.0008475 C50.8825368,52.5911769 55.5192593,47.2261756 58.0009882,40.7902523 Z" stroke="none" fill="#62A6FF"></path></g></g></g><g transform="translate(271.1385989064042 296.9996205453535)"><g clip-path="url(#i2)"><polygon points="0,0 30,0 30,30 0,30 0,0" stroke="none" fill="url(#i8)"></polygon><g transform="translate(2.0 4.0)"><path d="M28,-4 L28.0000619,7.51175852 C25.408169,3.02176458 20.55697,0 15,0 C6.71572875,0 0,6.71572875 0,15 C0,19.3464738 1.84866687,23.2611683 4.80260814,26.0006911 L-2,26 L-2,-4 L28,-4 Z M28.0000619,22.4882415 L28,26 L25.1973919,26.0006911 C26.2978104,24.9801489 27.2448443,23.7965219 28.0000619,22.4882415 Z" stroke="none" fill="#62A6FF"></path></g></g></g><g transform="translate(285.1385989064041 367.9996205453535)"><g opacity="72.1121652%"><g clip-path="url(#i9)"><polygon points="0,0 98,0 98,62.0003795 0,62.0003795 0,0" stroke="none" fill="url(#i10)"></polygon><g transform="translate(2.0 4.0)"><path d="M96,-4 L96.0014548,35.1032543 C90.0107325,14.8097932 71.2348725,0 49,0 C21.9380473,0 0,21.9380473 0,49 C0,69.1634744 12.1789666,86.4823987 29.5819595,94.0018325 L-2,94 L-2,-4 L96,-4 Z M96.0014548,62.8967457 L96,94 L68.4180405,94.0018325 C81.6548048,88.2825304 91.8693835,76.8940609 96.0014548,62.8967457 Z" stroke="none" fill="rgba(57, 137, 250, 0.84304)"></path></g></g></g></g></g><g transform="translate(165.1385989064042 98.99962054535354)"><g clip-path="url(#i11)"><polygon points="0,0 17,0 17,17 0,17 0,0" stroke="none" fill="url(#i12)" opacity="23.5677083%"></polygon></g></g><g transform="translate(443.8243122980863 127.6788392568443) rotate(9.0)"><g transform="translate(15.483737937710433 0.0)"><g clip-path="url(#i13)"><polygon points="0,0 45.5105268,0 45.5105268,45.5105268 0,45.5105268 0,0" stroke="none" fill="url(#i14)"></polygon></g></g><g transform="translate(38.239001327584305 7.001619504576578)"><g clip-path="url(#i15)"><polygon points="2.27373675e-13,0 7.87682194,0 7.87682194,7.87682194 2.27373675e-13,7.87682194 2.27373675e-13,0" stroke="none" fill="#31A1FF"></polygon></g></g><g transform="translate(24.23576231843116 24.505668266018027)"><g clip-path="url(#i16)"><polygon points="2.27373675e-13,0 13.1280366,0 13.1280366,13.1280366 2.27373675e-13,13.1280366 2.27373675e-13,0" stroke="none" fill="#1E98FD"></polygon></g></g><g transform="translate(46.115823270232966 24.50566826601803)"><g clip-path="url(#i17)"><polygon points="2.27373675e-13,0 9.62722682,0 9.62722682,9.62722682 2.27373675e-13,9.62722682 2.27373675e-13,0" stroke="none" fill="#1E99FF"></polygon></g></g><g transform="translate(-3.552713678800501e-14 34.23258547246889) rotate(-21.999999999999996)"><g clip-path="url(#i18)"><polygon points="-5.75539616e-13,-0.001 84.7766021,-0.001 84.7766021,16.2489537 -5.75539616e-13,16.2489537 -5.75539616e-13,-0.001" stroke="none" fill="#6B97FF"></polygon></g></g></g><g transform="translate(173.4427084559801 231.48302600052014) rotate(14.999999999999998) scale(-1.0 1.0)"><path d="M0,36.621152 C14.8571436,39.7929493 26.4529231,39.7929493 34.7873386,36.621152 C47.2889617,31.863456 64.3032828,18.5894116 41.0883303,15.8609399 C17.8733778,13.1324681 35.4368296,35.0785737 56.8438701,27.4304699 C71.1152304,22.3317341 81.1672737,13.1882441 87,0" stroke="#48A4FB" stroke-width="3" fill="none" stroke-linecap="round" stroke-miterlimit="10" opacity="59.9888393%"></path></g><g transform="translate(14.969202871876568 276.89229348210074) rotate(60.00000000000002) scale(1.0 -1.0)"><g transform="translate(12.0 1.0)"><g clip-path="url(#i2)"><polygon points="0,0 30,0 30,30 0,30 0,0" stroke="none" fill="url(#i3)" opacity="26.2555804%"></polygon></g></g><path d="M16.8091501,4.88513113 C6.91955401,0.379720936 1.33621734,-1.00928555 0.0591400444,0.718111668 C-0.930185149,2.05629033 10.6337409,12.4141543 24.1823902,20.1187549 C36.8677928,27.3324601 51.5243421,32.0085679 52.6509182,30.8140348 C54.2041291,29.1671316 50.5741764,25.6020383 41.7610601,20.1187549" stroke="#3F8DFA" stroke-width="1.5" fill="none" stroke-miterlimit="10" opacity="35.4678199%"></path></g><g transform="translate(60.13859890640407 159.99962054535354)"><g clip-path="url(#i19)"><polygon points="0,0 39,0 39,39 0,39 0,0" stroke="none" fill="url(#i20)"></polygon></g></g><g transform="translate(186.00000000000003 47.99999999999817)"><g clip-path="url(#i21)"><polygon points="0,0 196.702604,0 196.702604,204.774194 0,204.774194 0,0" stroke="none" fill="url(#i22)"></polygon></g><g transform="translate(24.386220665452104 96.7234185637626)"><g clip-path="url(#i23)"><polygon points="0,0 63.0804904,0 63.0804904,12.6160981 0,12.6160981 0,0" stroke="none" fill="#ECF7FF"></polygon><path d="M68,-6 L68,15 L-4,15 L-4,-6 L68,-6 Z M63.0804904,0 L0,0 L0,12.6160981 L63.0804904,12.6160981 L63.0804904,0 Z" stroke="none" fill="#000000" filter="url(#i24)"></path></g></g><g transform="translate(24.386220665452125 168.2146409804573)"><g clip-path="url(#i27)"><polygon points="0,0 63.0804904,0 63.0804904,12.6160981 0,12.6160981 0,0" stroke="none" fill="#E0F1FF"></polygon><path d="M68,-6 L68,15 L-4,15 L-4,-6 L68,-6 Z M63.0804904,0 L0,0 L0,12.6160981 L63.0804904,12.6160981 L63.0804904,0 Z" stroke="none" fill="#000000" filter="url(#i28)"></path></g></g><g transform="translate(24.386220665452125 24.18085464094111)"><g clip-path="url(#i31)"><polygon points="0,0 63.0804904,0 63.0804904,12.6160981 0,12.6160981 0,0" stroke="none" fill="#F6FBFF"></polygon><path d="M68,-6 L68,15 L-4,15 L-4,-6 L68,-6 Z M63.0804904,0 L0,0 L0,12.6160981 L63.0804904,12.6160981 L63.0804904,0 Z" stroke="none" fill="#000000" filter="url(#i32)"></path></g></g><g transform="translate(149.8689165581317 93.46765131897882)"><g clip-path="url(#i35)"><polygon points="0,0 17.6354059,0 17.6354059,17.6354059 0,17.6354059 0,0" stroke="none" fill="#ECF7FF"></polygon><path d="M22,-6 L22,20 L-4,20 L-4,-6 L22,-6 Z M8.46499487,0 C3.87978925,0 0,4.22756016 0,9.15971362 C0.352707982,13.7395705 4.58520542,17.9671305 9.17041104,17.6148339 C13.7556167,17.2625374 17.6354059,13.3872738 17.6354059,8.45512033 C17.2826979,3.87526341 13.4029085,0 8.46499487,0 Z" stroke="none" fill="#000000" filter="url(#i36)"></path></g></g><g transform="translate(122.73752285160649 93.46765131897882)"><g clip-path="url(#i39)"><polygon points="0,0 17.6354059,0 17.6354059,17.6354059 0,17.6354059 0,0" stroke="none" fill="#ECF7FF"></polygon><path d="M22,-6 L22,20 L-4,20 L-4,-6 L22,-6 Z M8.81088833,0 C4.22922636,0 0.352435599,3.93089081 0,8.93384277 C0,12.50738 2.46704878,15.7235634 5.63896855,17.1529784 C8.81088833,18.2250395 12.6876791,17.5103322 15.1547279,15.0088561 C17.6217764,12.50738 18.3266476,8.57648919 16.9169055,5.36030574 C15.5071635,2.1441223 12.3352437,0 8.81088833,0 Z" stroke="none" fill="#000000" filter="url(#i40)"></path></g></g><g transform="translate(123.21232224147059 21.02683012255693)"><g clip-path="url(#i43)"><polygon points="7.77156117e-15,0 17.6354059,0 17.6354059,17.6354059 7.77156117e-15,17.6354059 7.77156117e-15,0" stroke="none" fill="#F6FBFF"></polygon><path d="M22,-6 L22,20 L-4,20 L-4,-6 L22,-6 Z M8.7853273,0 C5.60804967,0 2.43077184,1.76354074 1.01864858,4.58520562 C-0.393474669,7.40687051 -0.393474669,10.5812436 1.3716795,13.4029085 C3.13683367,16.2245734 6.3141113,17.6354059 9.49138892,17.6354059 C14.4338207,17.2826979 17.9641293,13.4029085 17.6110983,8.46499487 C17.2580676,3.87978925 13.3747284,0 8.7853273,0 Z" stroke="none" fill="#000000" filter="url(#i44)"></path></g></g><g transform="translate(149.495859894667 21.02683012255693)"><g clip-path="url(#i47)"><polygon points="0,0 17.6354059,0 17.6354059,17.6354059 0,17.6354059 0,0" stroke="none" fill="#F6FBFF"></polygon><path d="M22,-6 L22,20 L-4,20 L-4,-6 L22,-6 Z M8.46499487,0 C3.87978925,0.352707982 0,4.23249743 0,9.17041104 C0.352707982,13.7556167 4.23249743,17.6354059 9.17041104,17.6354059 C13.7556167,17.6354059 17.6354059,13.4029085 17.6354059,8.46499487 C17.2826979,3.87978925 13.4029085,0 8.46499487,0 Z" stroke="none" fill="#000000" filter="url(#i48)"></path></g></g><g transform="translate(123.2123222414707 166.1119579682018)"><g clip-path="url(#i51)"><polygon points="0,0 17.6354059,0 17.6354059,17.6354059 0,17.6354059 0,0" stroke="none" fill="#E0F1FF"></polygon><path d="M22,-6 L22,20 L-4,20 L-4,-6 L22,-6 Z M8.81770285,0 C3.87978925,0 0,3.87978904 0,8.81770285 C0,13.7556167 3.87978925,17.6354059 8.81770285,17.6354059 C13.7556167,17.6354059 17.6354059,13.7556165 17.6354059,8.81770285 C17.6354059,3.87978925 13.7556165,0 8.81770285,0 Z" stroke="none" fill="#000000" filter="url(#i52)"></path></g></g><g transform="translate(149.4958598946671 166.1119579682018)"><g clip-path="url(#i55)"><polygon points="0,0 17.6354059,0 17.6354059,17.6354059 0,17.6354059 0,0" stroke="none" fill="#E0F1FF"></polygon><path d="M22,-6 L22,20 L-4,20 L-4,-6 L22,-6 Z M8.81770306,0 C3.87978925,0 0,3.87978904 0,8.81770285 C0,13.7556167 3.87978945,17.6354059 8.81770306,17.6354059 C13.7556167,17.6354059 17.6354059,13.7556165 17.6354059,8.81770285 C17.6354059,3.87978925 13.7556169,0 8.81770306,0 Z" stroke="none" fill="#000000" filter="url(#i56)"></path></g></g></g></g></g></g></g></svg>